HIERARCHY
ROOT Hips
{
	OFFSET 0.00000 0.00000 0.00000
	CHANNELS 6 Xposition Yposition Zposition Zrotation Yrotation Xrotation 
	JOINT LHipJoint
	{
		OFFSET 0 0 0
		CHANNELS 3 Zrotation Yrotation Xrotation
		JOINT LeftHip
		{
			OFFSET 1.75344 -1.53157 0.77399
			CHANNELS 3 Zrotation Yrotation Xrotation
			JOINT LeftKnee
			{
				OFFSET 2.25415 -6.19323 0.00000
				CHANNELS 3 Zrotation Yrotation Xrotation
				JOINT LeftAnkle
				{
					OFFSET 2.30342 -6.32861 0.00000
					CHANNELS 3 Zrotation Yrotation Xrotation
					JOINT LeftToe
					{
						OFFSET 0.10958 -0.30108 1.49206
						CHANNELS 3 Zrotation Yrotation Xrotation
						End Site
						{
							OFFSET 0.00000 -0.00000 0.77783
						}
					}
				}
			}
		}
	}
	JOINT RHipJoint
	{
		OFFSET 0 0 0
		CHANNELS 3 Zrotation Yrotation Xrotation
		JOINT RightHip
		{
			OFFSET -1.81912 -1.53156 0.77399
			CHANNELS 3 Zrotation Yrotation Xrotation
			JOINT RightKnee
			{
				OFFSET -2.22882 -6.12365 0.00000
				CHANNELS 3 Zrotation Yrotation Xrotation
				JOINT RightAnkle
				{
					OFFSET -2.21943 -6.09785 0.00000
					CHANNELS 3 Zrotation Yrotation Xrotation
					JOINT RightToe
					{
						OFFSET -0.18931 -0.52012 1.59379
						CHANNELS 3 Zrotation Yrotation Xrotation
						End Site
						{
							OFFSET -0.00000 -0.00000 0.84686
						}
					}
				}
			}
		}
	}
	JOINT lowerback
	{
		OFFSET 0 0 0
		CHANNELS 3 Zrotation Yrotation Xrotation
		JOINT Chest
		{
			OFFSET -0.00200 1.66634 -0.14248
			CHANNELS 3 Zrotation Yrotation Xrotation
			JOINT Chest2
			{
				OFFSET -0.00875 1.64542 0.09514
				CHANNELS 3 Zrotation Yrotation Xrotation
				JOINT lowerneck
				{
					OFFSET 0 0 0
					CHANNELS 3 Zrotation Yrotation Xrotation
					JOINT Neck
					{
						OFFSET 0.02257 1.59605 0.00839
						CHANNELS 3 Zrotation Yrotation Xrotation
						JOINT Head
						{
							OFFSET -0.10214 1.57530 -0.23335
							CHANNELS 3 Zrotation Yrotation Xrotation
							End Site
							{
								OFFSET -0.03588 1.60717 -0.08062
							}
						}
					}
				}
				JOINT LeftCollar
				{
					OFFSET 0 0 0
					CHANNELS 3 Zrotation Yrotation Xrotation
					JOINT LeftShoulder
					{
						OFFSET 2.54983 1.10186 0.40078
CHANNELS 3 Zrotation Xrotation Yrotation
						JOINT LeftElbow
						{
OFFSET 0 -4.288400 0.000000
CHANNELS 3 Zrotation Xrotation Yrotation
							JOINT LeftWrist
							{
OFFSET 0 -3.065520 -0.000000
CHANNELS 3 Zrotation Xrotation Yrotation
								JOINT lhand
								{
									OFFSET 0 0 0
CHANNELS 3 Zrotation Xrotation Yrotation
									JOINT LFingers
									{
OFFSET 0 -0.753040 0.000000
CHANNELS 3 Zrotation Xrotation Yrotation
										End Site
										{
OFFSET 0 -0.607120 0.000000
										}
									}
								}
								JOINT LThumb
								{
OFFSET 0 0.000000 0.000000
CHANNELS 3 Zrotation Xrotation Yrotation
									End Site
									{
OFFSET 0 -0.616390 0.616390
									}
								}
							}
						}
					}
				}
				JOINT RightCollar
				{
					OFFSET 0 0 0
					CHANNELS 3 Zrotation Yrotation Xrotation
					JOINT RightShoulder
					{
						OFFSET -2.60909 1.35448 0.21802
CHANNELS 3 Zrotation Xrotation Yrotation
						JOINT RightElbow
						{
OFFSET 0 -4.521720 -0.000000
CHANNELS 3 Zrotation Xrotation Yrotation
							JOINT RightWrist
							{
OFFSET 0 -2.891400 0.000000
CHANNELS 3 Zrotation Xrotation Yrotation
								JOINT rhand
								{
									OFFSET 0 0 0
CHANNELS 3 Zrotation Xrotation Yrotation
									JOINT RFingers
									{
OFFSET 0 -0.680540 0.000000
CHANNELS 3 Zrotation Xrotation Yrotation
										End Site
										{
OFFSET 0 -0.548670 0.000000
										}
									}
								}
								JOINT RThumb
								{
OFFSET 0 0.000000 0.000000
CHANNELS 3 Zrotation Xrotation Yrotation
									End Site
									{
OFFSET 0 -0.557050 0.557050
									}
								}
							}
						}
					}
				}
			}
		}
	}
}
MOTION
Frames: 7
Frame Time: 0.008333333333333333
8.331800 15.187500 42.067700 -178.552000 -10.858700 175.836000 0.000000 0.000000 0.000000 -27.410600 -24.630600 4.558300 2.166200 9.204100 26.435800 1.525000 7.001000 -26.776600 4.038900 -12.211900 -36.485900 0.000000 0.000000 0.000000 27.403100 19.154100 9.405700 -1.429300 -7.559500 21.383800 0.226700 -26.106000 -35.399800 -0.022400 0.966700 -2.657200 6.031000 3.854500 6.920100 -0.370500 5.701400 -5.156800 -4.545300 2.339900 -8.739400 10.057500 17.977300 -1.170800 -6.326400 24.227600 8.765800 -1.923600 11.976500 4.794200 0.000000 -0.000000 0.000000 5.824500 15.199400 -38.467200 21.958900 -32.930600 6.563500 4.581100 13.532200 32.752800 0.000000 0.000000 0.000000 -7.125000 0.000000 0.000000 -15.298000 -1.844600 -16.369900 0.000000 -0.000000 0.000000 -7.487700 14.422500 51.131500 -17.534700 -27.557300 -4.331800 -3.252300 18.020700 47.450000 0.000000 0.000000 0.000000 7.125000 0.000000 -0.000000 55.956300 70.120500 -37.228100
8.339956 15.194463 42.059723 -178.835125 -10.930254 176.272043 0.000000 0.000000 0.000000 -27.459539 -24.590146 4.266380 2.103527 9.078523 26.041191 1.474908 6.973962 -26.397346 4.094308 -12.284680 -36.746817 0.000000 0.000000 0.000000 26.664719 18.536790 8.387625 -1.475657 -7.675844 21.733690 0.109127 -25.214080 -34.809780 -0.018096 0.867057 -2.383082 5.718097 3.966487 6.633055 -0.509498 5.783880 -5.265688 -4.509259 2.392718 -8.692921 9.374938 17.960494 -0.963802 -5.728011 24.164579 8.182194 -1.756769 11.971841 4.420208 0.000000 0.000000 0.000000 5.952797 15.629013 -38.730780 22.465643 -33.499324 6.841111 5.144559 12.776075 31.552305 0.000000 0.000000 0.000000 -7.125000 0.000000 0.000000 -14.944070 -0.747485 -15.678158 0.000000 0.000000 0.000000 -7.514047 14.272085 51.168171 -17.446826 -27.443016 -4.291201 -3.898271 18.628721 48.016384 0.000000 0.000000 0.000000 7.125000 0.000000 0.000000 56.791042 70.642358 -38.468935
8.360344 15.195748 42.048659 -178.728589 -11.237283 176.321326 0.000000 0.000000 0.000000 -27.181482 -24.605807 4.067388 2.124419 9.120498 26.173029 1.505340 6.451718 -26.293512 4.095932 -12.286654 -36.754152 0.000000 0.000000 0.000000 26.977484 18.652744 8.592413 -1.447603 -7.605657 21.522592 0.170918 -25.793999 -35.271087 -0.013682 0.748054 -2.055789 5.605203 3.925077 6.471836 -0.445240 5.709361 -5.202638 -4.352553 2.374199 -8.553756 8.550908 17.983348 -1.046542 -4.902531 24.132030 7.763402 -1.528104 11.978834 4.269325 0.000000 0.000000 0.000000 5.697704 15.401038 -38.428328 22.314485 -33.330619 6.757842 4.005447 13.511942 31.117614 0.000000 0.000000 0.000000 -7.125000 0.000000 0.000000 -15.565535 -0.214659 -16.234808 0.000000 0.000000 0.000000 -7.669000 14.123205 51.037505 -17.562012 -27.592733 -4.344473 -2.781483 18.678753 48.466530 0.000000 0.000000 0.000000 7.125000 0.000000 0.000000 58.774674 70.488188 -39.913305
8.371203 15.192759 42.043566 -178.650967 -11.462636 176.202451 0.000000 0.000000 0.000000 -27.112388 -24.642089 4.220352 2.127711 9.127232 26.194161 1.514910 6.446367 -26.359360 4.268795 -12.509517 -37.559591 0.000000 0.000000 0.000000 27.156037 18.476652 8.739438 -1.441545 -7.590541 21.477122 0.089617 -25.602423 -35.460215 -0.009703 0.636055 -1.747842 5.692706 3.820373 6.521193 -0.399957 5.587769 -5.052333 -4.335870 2.323138 -8.429189 9.354952 17.844867 -1.447670 -6.290251 24.040537 8.529372 -1.849257 11.863594 4.663004 0.000000 0.000000 0.000000 5.579342 15.207773 -37.909053 22.291141 -33.304524 6.745014 6.591226 12.568455 31.540382 0.000000 0.000000 0.000000 -7.125000 0.000000 0.000000 -14.136426 -0.895022 -14.810844 0.000000 0.000000 0.000000 -7.701337 13.632522 51.172560 -17.450498 -27.447881 -4.292956 -3.012966 19.212486 48.030561 0.000000 0.000000 0.000000 7.125000 0.000000 0.000000 57.530515 70.345933 -38.740436
8.387491 15.190199 42.019029 -178.689836 -12.413378 176.152781 0.000000 0.000000 0.000000 -27.189876 -24.985112 4.480181 2.125476 9.122732 26.179974 1.507859 6.058563 -26.074633 4.391622 -12.660851 -38.116925 0.000000 0.000000 0.000000 27.499321 18.421690 9.165030 -1.444983 -7.599087 21.502782 0.023392 -26.091061 -36.494775 -0.000020 0.049167 -0.135006 5.538823 3.594851 6.268566 -0.459604 5.247704 -4.980757 -4.250521 2.175445 -8.247093 8.770282 17.911232 -1.786526 -5.455157 24.067696 9.047794 -1.509010 11.881619 4.707222 0.000000 0.000000 0.000000 5.686598 15.154608 -37.965143 22.202255 -33.204817 6.696286 9.858787 11.079480 31.814456 0.000000 0.000000 0.000000 -7.125000 0.000000 0.000000 -12.320361 -1.567717 -12.952766 0.000000 0.000000 0.000000 -7.634755 13.716331 51.706825 -17.491931 -27.501641 -4.312047 -2.731608 19.828071 49.253156 0.000000 0.000000 0.000000 7.125000 0.000000 0.000000 60.777267 70.850364 -41.987012
8.381945 15.192739 42.028115 -178.688140 -11.646284 176.282027 0.000000 0.000000 0.000000 -27.104315 -24.724898 4.210207 2.127019 9.125789 26.189606 1.483783 6.548467 -26.195211 4.218437 -12.442222 -37.319858 0.000000 0.000000 0.000000 27.161727 18.333321 8.680208 -1.443889 -7.596348 21.494543 0.145875 -25.877758 -35.529662 -0.012899 0.732565 -2.013303 5.811118 3.848738 6.516894 -0.500570 5.631909 -5.031284 -4.511350 2.338166 -8.378538 8.853604 17.928159 -2.181018 -5.309665 24.071789 9.740858 -1.403925 11.868901 4.977803 0.000000 0.000000 0.000000 5.910772 14.989931 -38.328431 22.281488 -33.293696 6.739752 9.067218 10.750699 32.114825 0.000000 0.000000 0.000000 -7.125000 0.000000 0.000000 -12.783014 -1.755519 -13.505261 0.000000 0.000000 0.000000 -7.266242 13.482777 50.962022 -17.363667 -27.334605 -4.253005 -3.074815 19.589439 47.143378 0.000000 0.000000 0.000000 7.125000 0.000000 0.000000 55.385112 69.891888 -36.528988
8.382853 15.191644 42.019740 -178.691993 -11.754558 176.322770 0.000000 0.000000 0.000000 -27.360527 -25.449890 4.564306 2.139890 9.151680 26.270889 1.443595 7.230035 -26.333838 4.448475 -12.734333 -38.381977 0.000000 0.000000 0.000000 27.240891 18.465332 8.798281 -1.436665 -7.578171 21.440051 0.067226 -25.781099 -35.828507 -0.001804 0.150262 -0.412752 5.890392 3.841236 6.491577 -0.521036 5.627556 -4.976333 -4.571227 2.336908 -8.295365 9.157520 17.855801 -2.027261 -5.827503 24.019707 9.669250 -1.594952 11.829680 5.028093 0.000000 0.000000 0.000000 5.755360 14.777906 -37.765717 21.963789 -32.936096 6.566121 9.317897 11.455051 32.731352 0.000000 0.000000 0.000000 -7.125000 0.000000 0.000000 -12.683820 -2.389477 -13.532019 0.000000 0.000000 0.000000 -7.245503 13.412942 51.273475 -17.571808 -27.605408 -4.349032 -3.315398 19.877003 48.022256 0.000000 0.000000 0.000000 7.125000 0.000000 0.000000 57.272772 70.444952 -38.641710
